<?xml version="1.0" encoding="iso-8859-1"?>
<!DOCTYPE svg PUBLIC "-//W3C//DTD SVG 1.1//EN" "http://www.w3.org/Graphics/SVG/1.1/DTD/svg11.dtd">
<svg fill="#000000" version="1.1" id="Capa_1" xmlns="http://www.w3.org/2000/svg" xmlns:xlink="http://www.w3.org/1999/xlink" 
	 width="222px" height="77px" viewBox="0 0 570.861 570.861"
	 xml:space="preserve">
<g>
	<g>
		<path d="M295.94,90.774c45.524,0,85.729,11.896,110.047,30.065c-0.852-56.477-43.421-102.75-98.255-109.497
			C307.076,4.991,301.768,0,295.201,0c-6.407,0-11.656,4.793-12.471,10.997c-56.655,5.642-100.861,53.427-100.861,111.536h1.833
			C207.743,103.409,249.032,90.774,295.94,90.774z"/>
		<path d="M355.036,279.709c-0.095,21.681-27.373,39.235-61.022,39.235c-33.703,0-61.032-17.613-61.032-39.345
			c0-0.55,0.098-1.091,0.127-1.64c-75.161,2.958-135.404,64.995-135.404,140.854l3.026,108.249c0,0,1.507-26.386,0.299,1.779
			c-0.122,2.701,0.629,5.379,1.971,7.974v3.925c0,16.633,13.479,30.121,30.113,30.121c10.101,0,18.988-5.024,24.453-12.649
			c3.975-2.057,6.481-5.709,6.481-11.384c0-33.194,15.01-147.556,15.01-147.556h7.506v158.29
			c41.092,7.72,78.262,10.71,111.031,10.71c39.466,0,72.584-4.297,98.709-9.705V399.278h3.76l18.772,147.916
			c0.225,0.225,0.521,0.408,0.757,0.627c1.655,12.98,12.613,23.04,26.043,23.04c14.563,0,26.373-11.81,26.373-26.374v-7.488
			c0.568-2.146,0.97-4.416,0.97-6.98l0.178-2.944V418.813C473.163,348.865,421.94,290.68,355.036,279.709z"/>
		<path d="M174.701,182.093c6.487,59.908,56.223,104.804,116.782,104.804c60.562,0,110.312-44.896,116.785-104.804
			c6.874,0.496,10.716-2.737,10.716-12.434c0-37.533-38.438-71.499-127.489-67.965c-87.305,3.47-127.489,30.432-127.489,67.965
			C164.006,179.356,167.83,182.589,174.701,182.093z M216.526,175.023c20.959-9.147,47.035-20.52,74.957-20.52
			c27.911,0,54.001,11.373,74.99,20.531c10.107,4.413,18.613,8.127,26.356,10.113c-7.655,49.905-50.1,86.734-101.347,86.734
			c-51.231,0-93.673-36.83-101.331-86.734C197.895,183.163,206.404,179.448,216.526,175.023z"/>
	</g>
</g>
</svg>